<?xml version="1.0" encoding="UTF-8"?>
<svg id="Ebene_1" xmlns="http://www.w3.org/2000/svg" version="1.1" viewBox="0 0 17 17">
  <!-- Generator: Adobe Illustrator 29.0.0, SVG Export Plug-In . SVG Version: 2.1.0 Build 186)  -->
  <defs>
    <style>
      .st0 {
        fill: #fff;
      }

      .st1 {
        fill: #e72700;
      }

      .st2 {
        fill: #1c3084;
      }

      .st3 {
        fill: #f2f2f2;
      }

      .st3, .st4, .st5 {
        stroke: #6d6d6d;
        stroke-miterlimit: 10;
        stroke-width: .2px;
      }

      .st4 {
        fill: #c6c6c6;
      }

      .st5 {
        fill: #ccc;
      }
    </style>
  </defs>
  <rect class="st2" y="0" width="17" height="8.5"/>
  <rect class="st5" x=".2" y="8.6" width="2.8" height="2.1"/>
  <rect class="st5" x="3" y="8.6" width="2.8" height="2.1"/>
  <rect class="st5" x="5.8" y="8.6" width="2.8" height="2.1"/>
  <rect class="st5" x="8.6" y="8.6" width="2.8" height="2.1"/>
  <rect class="st5" x="11.4" y="8.6" width="2.8" height="2.1"/>
  <rect class="st5" x="14.2" y="8.6" width="2.8" height="2.1"/>
  <rect class="st3" x=".2" y="10.7" width="2.8" height="2.1"/>
  <rect class="st3" x="3" y="10.7" width="2.8" height="2.1"/>
  <rect class="st3" x="5.8" y="10.7" width="2.8" height="2.1"/>
  <rect class="st3" x="8.6" y="10.7" width="2.8" height="2.1"/>
  <rect class="st3" x="11.4" y="10.7" width="2.8" height="2.1"/>
  <rect class="st3" x="14.2" y="10.7" width="2.8" height="2.1"/>
  <rect class="st4" x=".2" y="12.7" width="2.8" height="2.1"/>
  <rect class="st4" x="3" y="12.7" width="2.8" height="2.1"/>
  <rect class="st4" x="5.8" y="12.7" width="2.8" height="2.1"/>
  <rect class="st4" x="8.6" y="12.7" width="2.8" height="2.1"/>
  <rect class="st4" x="11.4" y="12.7" width="2.8" height="2.1"/>
  <rect class="st4" x="14.2" y="12.7" width="2.8" height="2.1"/>
  <rect class="st3" x=".2" y="14.8" width="2.8" height="2.1"/>
  <rect class="st3" x="3" y="14.8" width="2.8" height="2.1"/>
  <rect class="st3" x="5.8" y="14.8" width="2.8" height="2.1"/>
  <rect class="st3" x="8.6" y="14.8" width="2.8" height="2.1"/>
  <rect class="st3" x="11.4" y="14.8" width="2.8" height="2.1"/>
  <rect class="st3" x="14.2" y="14.8" width="2.8" height="2.1"/>
  <rect class="st1" x="3.9" y="1" width="1.1" height="1.1"/>
  <polygon class="st0" points="3.9 1 2.8 1 1.7 1 .6 1 .6 2.1 1.7 2.1 1.7 7.4 2.8 7.4 2.8 2.1 3.9 2.1 3.9 1"/>
  <rect class="st0" x="12.5" y="3.1" width="1.1" height="4.4"/>
  <path class="st0" d="M6.8,2.9c0-1-.8-1.9-1.8-1.9v1.1c.4,0,.8.4.8.8s-.4.8-.8.8h0v1.1h0c.4,0,.8.4.8.8s-.3.8-.8.8h-1v1.1h1c1,0,1.8-.8,1.8-1.9s-.2-1-.6-1.3c.3-.3.6-.8.6-1.3h0Z"/>
  <path class="st0" d="M11.4,5.7h0V1h-1.1v4.6c0,.4-.3.7-.7.7s-.7-.3-.7-.7h0V1h-1.1v4.7h0c0,1,.8,1.8,1.8,1.8s1.8-.8,1.8-1.8h0Z"/>
  <path class="st0" d="M14.5,1.1h-2v1.1h1.9c.5,0,.9.4.9.9s-.4.9-.9.9v1.1c1.1,0,2-.9,2-2s-.8-1.9-1.9-2Z"/>
</svg>